<svg xmlns="http://www.w3.org/2000/svg" width="1024" height="1024" viewBox="0 0 1024 1024">
  <defs>
    <linearGradient id="bg" x1="0" y1="0" x2="1" y2="1">
      <stop offset="0%" stop-color="#1D4ED8"/>
      <stop offset="100%" stop-color="#0F172A"/>
    </linearGradient>
    <linearGradient id="arrow1" x1="0" y1="0" x2="1" y2="1">
      <stop offset="0%" stop-color="#22D3EE"/>
      <stop offset="100%" stop-color="#3B82F6"/>
    </linearGradient>
    <linearGradient id="arrow2" x1="0" y1="0" x2="1" y2="1">
      <stop offset="0%" stop-color="#34D399"/>
      <stop offset="100%" stop-color="#10B981"/>
    </linearGradient>
    <filter id="shadow" x="-20%" y="-20%" width="140%" height="140%">
      <feDropShadow dx="0" dy="10" stdDeviation="12" flood-color="#0B1220" flood-opacity="0.35"/>
    </filter>
  </defs>

  <rect x="64" y="64" width="896" height="896" rx="220" fill="url(#bg)"/>

  <g filter="url(#shadow)" stroke="#E2E8F0" stroke-linecap="round" stroke-linejoin="round" fill="none">
    <polygon points="512,292 692,396 512,500 332,396" stroke-width="30"/>
    <polyline points="332,396 332,620 512,724 512,500" stroke-width="30"/>
    <polyline points="692,396 692,620 512,724" stroke-width="30"/>
    <line x1="512" y1="292" x2="512" y2="500" stroke-width="30"/>
  </g>

  <path d="M276 660c10 80 72 142 152 152" stroke="url(#arrow2)" stroke-width="36" fill="none" stroke-linecap="round"/>
  <polygon points="390,808 476,792 420,726" fill="url(#arrow2)"/>

  <path d="M748 364c-10-80-72-142-152-152" stroke="url(#arrow1)" stroke-width="36" fill="none" stroke-linecap="round"/>
  <polygon points="634,216 548,232 604,298" fill="url(#arrow1)"/>
</svg>
